# xmcd CD database file
#
# Track frame offsets:
#	150
#	17593
#	36096
#	52895
#	69400
#	85772
#	101180
#	121964
#	137942
#	156163
#	182810
#	202769
#	221956
#
# Disc length: 3193 seconds
#
# Revision: 2
# Processed by: cddbd v1.5.1PL2 Copyright (c) Steve Scherf et al.
# Submitted via: jetAudio 5
#
DISCID=b30c770d
DTITLE=Lucie Silvas - Breathe In
DYEAR=1900
DGENRE=
TTITLE0=Don't look back
TTITLE1=The game is won
TTITLE2=Last man standing
TTITLE3=Forget me not
TTITLE4=Breathe in
TTITLE5=Nothing else matters
TTITLE6=Without you
TTITLE7=What you're made of
TTITLE8=Twisting the chain
TTITLE9=No defence
TTITLE10=The longer we're apart
TTITLE11=Like you love me
TTITLE12=Seven vails
EXTD=
EXTT0=
EXTT1=
EXTT2=
EXTT3=
EXTT4=
EXTT5=
EXTT6=
EXTT7=
EXTT8=
EXTT9=
EXTT10=
EXTT11=
EXTT12=
PLAYORDER=
